<svg xmlns="http://www.w3.org/2000/svg" viewBox="0 0 16 16">
  <defs>
    <style>
      .cls-1 {
        fill: #27aa37;
        fill-rule: evenodd;
      }
    </style>
  </defs>
  <g id="Enabled">
    <path id="_" data-name="" class="cls-1" d="M128.765,8.289a0.62,0.62,0,0,1-.373.564,0.714,0.714,0,0,1-.239.048,0.572,0.572,0,0,1-.431-0.182l-1.377-1.377-5.108,5.108a0.606,0.606,0,0,1-.861,0l-0.976-.976a0.606,0.606,0,0,1,0-.861l5.108-5.108-1.377-1.377A0.6,0.6,0,0,1,123,3.459a0.618,0.618,0,0,1,.564-0.373h4.592a0.617,0.617,0,0,1,.612.612V8.289Zm2.449-4.9A2.756,2.756,0,0,0,128.459.637h-9.183a2.756,2.756,0,0,0-2.755,2.755v9.183a2.756,2.756,0,0,0,2.755,2.755h9.183a2.756,2.756,0,0,0,2.755-2.755V3.392Z" transform="translate(-116)"/>
  </g>
</svg>
